# xmcd
#
# Track frame offsets: 
#        150
#        21435
#        38710
#        51652
#        71327
#        88020
#        102662
#        124975
#        140610
#        160847
#
# Disc length: 2450 seconds
#
# Revision: 8
# Processed by: cddbd v1.5.2PL0 Copyright (c) Steve Scherf et al.
# Submitted via: ExactAudioCopy v1.3
#
DISCID=9209900a
DTITLE=Vaughan Brothers - Family Style
DYEAR=1990
DGENRE=Blues
TTITLE0=Hard To Be
TTITLE1=White Boots
TTITLE2=D - FW
TTITLE3=Good Texan
TTITLE4=Hillbillies From Outerspace
TTITLE5=Long Way From Home
TTITLE6=Tick Tack
TTITLE7=Telephone Song
TTITLE8=Baboom - Mama Said
TTITLE9=Brothers
EXTD=\n YEAR: 1990
EXTT0=
EXTT1=
EXTT2=
EXTT3=
EXTT4=
EXTT5=
EXTT6=
EXTT7=
EXTT8=
EXTT9=
PLAYORDER=
